<svg version="1.1" id="Capa_1" xmlns:x="ns_extend;" xmlns:i="ns_ai;" xmlns:graph="ns_graphs;" xmlns="http://www.w3.org/2000/svg" xmlns:xlink="http://www.w3.org/1999/xlink" x="0px" y="0px" viewBox="0 0 170.4 42.1" style="enable-background:new 0 0 170.4 42.1;" xml:space="preserve">
 <style type="text/css">
  .st0{fill:#FFFFFF;}
 </style>
 <metadata>
  <sfw xmlns="ns_sfw;">
   <slices>
   </slices>
   <sliceSourceBounds bottomLeftOrigin="true" height="42.1" width="170.4" x="1" y="0.5">
   </sliceSourceBounds>
  </sfw>
 </metadata>
 <g>
  <rect x="54.2" y="9.9" class="st0" width="3.3" height="22.3">
  </rect>
  <path class="st0" d="M72.8,16.8c-1.1-0.7-2.4-1.1-3.8-1.1c-1.2,0-2.2,0.2-3.1,0.7c-0.8,0.5-1.6,1.2-2.1,2c-0.1,0.2-0.2,0.3-0.3,0.5
		v-9h-3.1v22.3h3.1v-2.9c0.1,0.2,0.2,0.3,0.3,0.5c0.5,0.8,1.2,1.5,2.1,2c0.9,0.5,1.9,0.7,3.1,0.7c1,0,2-0.2,2.9-0.6
		c0.9-0.4,1.7-1,2.3-1.7c0.7-0.8,1.2-1.7,1.6-2.7c0.4-1.1,0.6-2.2,0.6-3.4c0-1.7-0.3-3.1-1-4.4C74.9,18.6,73.9,17.6,72.8,16.8z
		 M72.9,26.5c-0.2,0.7-0.6,1.3-1,1.8s-1,0.9-1.5,1.1c-0.6,0.3-1.3,0.4-2,0.4c-1.4,0-2.6-0.5-3.5-1.5s-1.4-2.4-1.4-4.1
		c0-0.8,0.1-1.6,0.4-2.4c0.2-0.6,0.6-1.2,1-1.8c0.4-0.5,1-0.9,1.5-1.1c0.6-0.2,1.3-0.4,1.9-0.4c1.4,0,2.6,0.5,3.5,1.5
		s1.4,2.4,1.4,4.1C73.3,25,73.1,25.8,72.9,26.5z">
  </path>
  <path class="st0" d="M89.5,16.8c-1.2-0.7-2.5-1.1-3.9-1c-1.1,0-2.1,0.2-3.1,0.6c-0.9,0.4-1.8,1-2.5,1.7c-0.7,0.8-1.3,1.7-1.6,2.7
		c-0.4,1.1-0.6,2.3-0.6,3.5c0,1.7,0.3,3.2,1,4.4c0.6,1.2,1.6,2.3,2.8,3c1.2,0.7,2.7,1.1,4.1,1.1c0.9,0,1.8-0.1,2.7-0.4
		c0.9-0.3,1.7-0.7,2.4-1.3c0.8-0.7,1.4-1.5,1.9-2.3l-2.4-1.5c-0.3,0.6-0.7,1.2-1.2,1.6s-1,0.7-1.6,0.9c-0.6,0.2-1.2,0.3-1.9,0.3
		c-0.9,0-1.7-0.2-2.5-0.6c-0.7-0.5-1.3-1.1-1.7-1.9c-0.2-1-0.4-1.9-0.4-2.7h12.1c0-0.1,0-0.3,0-0.4v-0.4c0-1.7-0.3-3.1-1-4.4
		C91.5,18.5,90.6,17.5,89.5,16.8z M82.2,19.9c0.4-0.5,0.9-0.9,1.5-1.1c0.6-0.3,1.3-0.4,1.9-0.4c1.2,0,2.4,0.5,3.1,1.4
		c0.6,0.7,1,1.6,1.1,2.8h-8.7c0-0.3,0.1-0.6,0.2-0.9C81.5,21,81.8,20.4,82.2,19.9L82.2,19.9z">
  </path>
  <path class="st0" d="M103.6,15.7h-0.9c-0.9,0-1.8,0.2-2.6,0.7c-0.8,0.5-1.4,1.2-1.8,2.2v-2.7h-3.1v16.2h3.1v-8.5
		c0-1.4,0.4-2.5,1.1-3.3s1.6-1.3,2.7-1.2h1.6L103.6,15.7L103.6,15.7z">
  </path>
  <path class="st0" d="M116.4,19c-0.1-0.2-0.2-0.3-0.3-0.5c-0.5-0.8-1.3-1.5-2.1-2c-0.8-0.5-1.9-0.8-3.1-0.7c-1,0-2,0.2-3,0.6
		c-0.9,0.4-1.7,1-2.4,1.7c-0.7,0.8-1.2,1.7-1.6,2.7c-0.4,1.1-0.6,2.3-0.6,3.4c0,1.7,0.3,3.1,1,4.4c0.6,1.2,1.5,2.2,2.7,3
		c1.1,0.7,2.5,1.1,3.8,1.1c1.2,0,2.2-0.2,3.1-0.7c0.8-0.5,1.6-1.2,2.1-2c0.1-0.2,0.2-0.3,0.3-0.5v2.9h3.1V9.9h-3.1L116.4,19
		L116.4,19z M115.2,28.3c-0.4,0.5-1,0.9-1.6,1.1c-0.6,0.3-1.3,0.4-2,0.4c-1.4,0-2.6-0.5-3.5-1.5s-1.4-2.4-1.4-4.1
		c0-0.8,0.1-1.6,0.4-2.4c0.2-0.6,0.6-1.2,1-1.8c0.4-0.5,1-0.9,1.5-1.1c0.6-0.3,1.3-0.4,2-0.4c1.4,0,2.6,0.5,3.5,1.5s1.4,2.4,1.4,4.1
		c0,0.8-0.1,1.6-0.4,2.3C115.9,27.2,115.6,27.8,115.2,28.3z">
  </path>
  <path class="st0" d="M131,15.7h-1c-0.9,0-1.8,0.2-2.6,0.7s-1.4,1.2-1.8,2.2v-2.7h-3.1v16.2h3.1v-8.5c0-1.4,0.4-2.5,1.1-3.3
		c0.7-0.8,1.6-1.3,2.7-1.2h1.6V15.7z">
  </path>
  <path class="st0" d="M143.4,16.8c-1.3-0.7-2.8-1.1-4.2-1.1c-1.1,0-2.2,0.2-3.3,0.6c-1,0.4-1.9,1-2.6,1.7c-0.8,0.8-1.3,1.7-1.7,2.7
		c-0.4,1.1-0.6,2.2-0.6,3.4c0,1.7,0.4,3.1,1.1,4.4c0.7,1.2,1.7,2.3,2.9,3c1.3,0.7,2.7,1.1,4.2,1.1c1.1,0,2.2-0.2,3.3-0.6
		c1-0.4,1.9-1,2.6-1.7c0.8-0.8,1.3-1.7,1.7-2.7c0.4-1.1,0.6-2.3,0.6-3.4c0-1.7-0.4-3.2-1.1-4.4C145.7,18.5,144.6,17.5,143.4,16.8z
		 M143.8,26.5c-0.2,0.7-0.6,1.3-1.1,1.8c-0.4,0.5-1,0.9-1.6,1.1c-0.6,0.3-1.3,0.4-2,0.4c-0.9,0-1.8-0.2-2.5-0.7
		c-0.8-0.5-1.4-1.1-1.8-1.9c-0.4-0.8-0.7-1.8-0.7-3c0-0.8,0.1-1.6,0.4-2.4c0.2-0.6,0.6-1.2,1-1.8c0.4-0.5,1-0.9,1.6-1.1
		s1.3-0.4,2-0.4c0.9,0,1.8,0.2,2.6,0.7s1.4,1.1,1.8,1.9c0.4,0.8,0.7,1.8,0.7,3C144.2,25,144.1,25.8,143.8,26.5L143.8,26.5z">
  </path>
  <path class="st0" d="M152.7,29c-0.3-0.3-0.4-0.8-0.4-1.4V9.9h-3.1v17.9c0,0.8,0.1,1.6,0.5,2.3c0.3,0.7,0.8,1.2,1.5,1.6
		c0.7,0.4,1.6,0.6,2.4,0.6h1.8v-2.7h-1.3C153.5,29.5,153,29.4,152.7,29z">
  </path>
  <path class="st0" d="M169.8,19.3c-0.4-0.8-0.9-1.5-1.6-2c-0.7-0.5-1.5-0.9-2.3-1.1c-0.9-0.2-1.8-0.4-2.7-0.4c-1.4,0-2.7,0.3-4,1
		c-1.2,0.7-2.1,1.7-2.6,3l2.5,1.4c0.3-0.8,0.8-1.4,1.5-1.9c0.7-0.4,1.5-0.7,2.5-0.7c0.7,0,1.4,0.1,2.1,0.4c0.6,0.2,1.2,0.7,1.5,1.2
		c0.4,0.6,0.6,1.3,0.6,2.3v1.8c-0.1-0.1-0.2-0.2-0.4-0.3c-1-0.9-2.4-1.3-4.3-1.3c-1.1,0-2.3,0.2-3.3,0.6c-0.9,0.3-1.7,0.9-2.4,1.7
		c-1.1,1.6-1.2,3.8,0,5.4c0.6,0.8,1.4,1.4,2.3,1.7c1,0.4,2.1,0.6,3.2,0.6c1.9,0,3.4-0.5,4.4-1.4c0.2-0.2,0.4-0.4,0.6-0.6v1.6h3V22.2
		C170.5,21.2,170.3,20.2,169.8,19.3z M166.3,29.5c-0.8,0.4-1.7,0.7-2.9,0.7s-2.1-0.2-2.9-0.7c-0.8-0.4-1.2-1.1-1.2-1.9
		s0.4-1.6,1.2-2s1.7-0.7,2.9-0.7c1.1,0,2.1,0.2,2.9,0.7c0.7,0.4,1.2,1.2,1.1,2C167.4,28.4,167,29.1,166.3,29.5L166.3,29.5z">
  </path>
  <path class="st0" d="M24.7,24.3c0,2.6,1,5,2.8,6.9c3.5,3.5,8.2,3.5,11.2,1.8c3.7-2,12-8,3.4-33C42.2,11.8,24.7,13,24.7,24.3z">
  </path>
  <path class="st0" d="M32.7,10.4c-0.6-3.1-1.5-6.2-2.9-10.3c0,11.8-17.4,13-17.4,24.3c0,2.6,1,5,2.8,6.9c3.5,3.5,8.3,3.5,11.2,1.8
		C19.5,25.6,21.9,17.1,32.7,10.4z">
  </path>
  <path class="st0" d="M20.3,10.4c-0.6-3.1-1.5-6.2-2.9-10.3C17.4,11.8,0,13,0,24.3c0,5.8,4.7,8.3,4.7,8.3c-0.7,3.1-0.9,6.3-0.4,9.5
		l2.2-0.4c-1.1-3.8-0.4-8-0.4-8.4c2.9,1.1,5.8,0.8,7.9-0.4C7.1,25.6,9.6,17.1,20.3,10.4z">
  </path>
 </g>
</svg>