<svg data-name="Capa 2" viewBox="0 0 368.67 68.57" xmlns="http://www.w3.org/2000/svg"><path d="M40.43 1.02c3.48-2.58 8.96.04 9.22 4.32.64 4.06-3.81 7.85-7.71 6.36-4.77-1.08-5.64-8.28-1.51-10.68Zm202.95 2.54c3.67-.01 7.34-.01 11.01-.01V55.3h-11c0-17.25 0-34.5-.01-51.74ZM.03 32.42c1.54-8.24 8.55-15.08 16.89-16.17 6.34-1.06 12.84 1.39 17.45 5.75-2.86 2.28-5.77 4.49-8.67 6.71-2.65-1.54-5.86-2.67-8.86-1.39-3.31.99-5.33 4.04-6.31 7.18-3.49-.7-6.99-1.41-10.5-2.08Zm67.51-11.26c4.79-5.66 13.88-6.87 19.92-2.56 3.92 2.68 5.82 7.47 5.89 12.1.11 8.19 0 16.4.04 24.6H82.64c-.01-7.34.02-14.67 0-22.01.11-2.8-1.26-5.62-3.67-7.09-4.47-2.52-11.07.78-11.3 6.02-.09 7.69 0 15.38-.03 23.08h-11V17.05h11.04c-.03 1.03-.1 3.08-.14 4.11Zm34.39 2.14c6.71-8.9 22.02-10.1 29.29-1.29 4.26 4.86 5.14 11.57 5.49 17.77-9.26.1-18.52-.1-27.78.11 1.25 2.11 2.48 4.47 4.86 5.51 4.36 2.16 9.56.43 13.16-2.44 2.26 2.52 4.64 4.92 7 7.34-5.81 5.08-14.07 6.93-21.54 5.19-5.95-1.51-11.09-5.94-13.25-11.71-2.52-6.69-1.75-14.8 2.77-20.48Zm7.2 8.45c5.67.09 11.35.06 17.02.02-1.17-2.68-3.16-5.34-6.26-5.78-4.45-1.08-8.97 1.7-10.76 5.76Zm77.88-14.97c3.75.03 7.51.01 11.27.03-5.04 13.18-10.26 26.29-15.35 39.45-1.64 4.47-4.28 9.01-8.75 11.12-4.9 2.28-10.54.94-15.27-1.12.8-2.54 1.58-5.1 2.33-7.66 2.29.78 4.75 2.38 7.24 1.38 2.02-.56 2.7-2.74 3.67-4.35-5.38-12.91-10.66-25.86-16-38.78 3.83-.08 7.66-.07 11.49-.01 3.26 8.87 6.68 17.68 9.9 26.57 3.15-8.88 6.31-17.75 9.47-26.63Zm16.46 6.01c6.77-8.23 21-9.36 28.41-1.39 4.53 4.92 5.84 11.91 5.82 18.39-9.2.06-18.4-.07-27.59.07 1.32 2.48 2.98 5.08 5.81 5.98 4.24 1.51 8.63-.36 12.14-2.74 2.34 2.33 4.68 4.67 7.02 7-9.34 9.1-27.58 8.06-33.8-4.17-3.86-7.23-3.11-16.82 2.19-23.14Zm6.76 8.95c5.69.1 11.39.09 17.08.01-1.4-3.8-5.27-6.64-9.41-5.88-3.5.27-6.11 2.93-7.67 5.87Zm62.34-10.4c5.1-7.84 17.72-6.56 22.38 1.08 4.38-6.98 14.87-8.49 21.26-3.45 3.72 2.85 5.45 7.65 5.43 12.24.01 8.03-.01 16.06 0 24.09h-10.75c-.02-7.68.03-15.36-.01-23.03.11-2.98-1.92-6.09-4.93-6.71-3.82-1.09-8.55 1.71-8.75 5.84-.16 7.97-.01 15.93-.06 23.9h-10.5c-.01-7.04.01-14.08 0-21.11-.07-2.56-.35-5.49-2.47-7.24-3.26-3.03-9.27-1.59-10.9 2.52-.68 1.53-.64 3.23-.65 4.86.03 6.99.01 13.98.02 20.97h-11V16.8c3.67 0 7.35-.01 11.03 0-.03 1.14-.07 3.4-.1 4.54Zm68.82-4.37c10.8-3.69 23.81 3.09 26.61 14.21 2.76 9.57-3.29 20.2-12.5 23.54-10.91 4.56-24.98-1.87-27.99-13.46-3.14-10.21 3.81-21.49 13.88-24.29Zm3.02 9c-3.65 1.29-6.31 4.75-6.95 8.53-.99 6.06 4.13 12.43 10.37 12.33 7.1.06 12.48-8.37 9.44-14.79-1.84-4.93-7.84-8.14-12.86-6.07ZM38.14 17.05h11V55.3h-11V17.05ZM0 39.83c3.49-.72 7-1.35 10.48-2.09 1.06 2.93 2.84 5.85 5.91 6.97 3.08 1.42 6.54.5 9.3-1.19 2.91 2.19 5.78 4.42 8.65 6.66-4.13 3.97-9.8 6.42-15.58 5.89C9.65 55.94 1.75 48.62 0 39.83Z" style="fill:#002069" data-name="Layer 1"/></svg>