<?xml version="1.0" encoding="UTF-8"?>
<svg id="Capa_1" data-name="Capa 1" xmlns="http://www.w3.org/2000/svg" viewBox="0 0 217.66 73.94">
  <defs>
    <style>
      .cls-1 {
        fill: #fff;
      }

      .cls-2 {
        fill: #f40009;
      }
    </style>
  </defs>
  <path class="cls-1" d="M186.75,54.17v13.99c0,2.94-2.38,5.32-5.32,5.32h-49.68c-2.94,0-5.32-2.38-5.32-5.32v-3.9l-.42.75h-17.06l-.21-.42v3.57c0,2.94-2.38,5.32-5.32,5.32h-15.33v-4.96c-4.34,3.46-10.6,5.42-18.23,5.42h-1.33c-7.2,0-13.19-1.89-17.5-5.27-1.83-1.43-4.39-1.75-6.19-.29-4.38,3.55-10.7,5.55-18.4,5.55h-1.38c-15.23,0-25.07-8.43-25.07-21.48v-4.05c0-13.22,9.64-21.4,25.07-21.4h1.38c7.46,0,13.61,1.87,17.94,5.21,1.96,1.51,4.55,1.51,6.5-.01,4.3-3.35,10.32-5.2,17.65-5.2h1.33c7.63,0,13.89,1.96,18.23,5.46v-5.05h20.67c1.96,0,3.77,1.08,4.69,2.81h0c1.99,3.73,7.32,3.76,9.35.05l.06-.11c.93-1.7,2.72-2.76,4.66-2.76h53.64c2.94,0,5.32,2.38,5.32,5.32v13.99l-2.67.21v7.22h2.92Z"/>
  <g>
    <path d="M26.43,33.25c11.11,0,18.61,4.55,18.61,13.36v.45h-8.66v-.45c-.05-3.6-3.25-6-10-6h-1.3c-6.55,0-10.11,2.6-10.11,7.81v4.05c0,5.35,3.55,7.85,10.11,7.85h1.3c6.71,0,10.16-2.5,10.16-6.1v-.3h8.71v.3c0,8.66-7.65,13.46-18.81,13.46h-1.35c-10.81,0-18.81-4.8-18.81-15.21v-4.05c0-10.4,8-15.16,18.81-15.16h1.35Z"/>
    <path d="M69.88,33.25c11.11,0,18.61,4.55,18.61,13.36v.45h-8.66v-.45c-.05-3.6-3.25-6-10-6h-1.3c-6.55,0-10.11,2.6-10.11,7.81v4.05c0,5.35,3.55,7.85,10.11,7.85h1.3c6.71,0,10.16-2.5,10.16-6.1v-.3h8.71v.3c0,8.66-7.65,13.46-18.81,13.46h-1.35c-10.81,0-18.81-4.8-18.81-15.21v-4.05c0-10.4,8-15.16,18.81-15.16h1.35Z"/>
    <path d="M108.23,33.7l8.9,16.66h1.85l9.11-16.66h13.1v33.52h-8.51v-24.96h-1.5l-8.9,16.51h-9.56l-8.75-16.51h-1.5v24.96h-8.11v-33.52h13.86Z"/>
    <path d="M180.24,33.7v6.8h-24.11v6.45h21.46v6.4h-21.46v7.06h24.36v6.8h-32.87v-33.52h32.62Z"/>
  </g>
  <g>
    <path class="cls-1" d="M216.35,28.01c-1.79,1.9.35,2.29.49,3.41.04.34-.35,2.04-.53,2.28-.26.35-2.03.41-2.33,1.35-.38,1.18.67,1.91.38,3-.02.1-.97,1.64-1.06,1.69-.57.32-1.89-.44-2.57.65-.81,1.3.87,2.73-1.46,4.04-.88.5-1.74-.48-2.88.18-1.1.64-.39,1.99-.72,2.55-.05.08-1.62.99-1.71,1.01-1.14.27-1.97-.95-3.17-.38-.75.36-.91,1.99-1.23,2.22-.25.17-1.95.52-2.3.47-1.04-.16-1.45-2.22-3.26-.71-.98.82-.67,1.47-2.46,1.41-1.53-.05-1.27-.61-2.05-1.34-1.91-1.79-2.29.35-3.41.49-.34.04-2.04-.35-2.28-.53-.35-.26-.41-2.03-1.35-2.33-1.18-.38-1.91.67-3,.38-.1-.02-1.64-.97-1.69-1.06-.32-.57.44-1.89-.65-2.57-1.3-.81-2.73.87-4.04-1.46-.5-.88.48-1.74-.18-2.88-.64-1.1-1.99-.39-2.55-.72-.08-.05-.99-1.62-1.01-1.71-.27-1.14.95-1.97.38-3.17-.36-.75-1.99-.91-2.22-1.23-.17-.25-.52-1.95-.47-2.3.11-.73,1.3-1.09,1.26-2.29-.06-1.66-2-.99-1.92-3.42.07-2.18,1.88-1.5,2.04-3.18.12-1.19-1.12-1.49-1.22-2.3-.04-.34.35-2.04.53-2.28.26-.35,2.03-.41,2.33-1.35.38-1.18-.67-1.91-.38-3,.02-.1.97-1.64,1.06-1.69.94-.52,2.79.89,2.85-1.7.03-1.42-.6-1.86,1.18-2.99.78-.5,2.02.48,3.08-.18.74-.45.24-2.09.52-2.56.06-.1,1.74-1.04,1.93-1.07.79-.1,1.18.44,1.81.54,2.17.34,1.75-2.02,2.54-2.38.38-.17,1.75-.47,2.14-.41.74.11,1.09,1.26,2.06,1.3,1.56.07,1.8-1.68,2.16-1.76.31-.07,2.7,0,2.88.1.34.2.3,1.44,1.57,1.68,1.42.26,1.65-1.24,2.98-1.14,2.42.19,1.64.93,2.51,2.19,1.17,1.68,2.33-.09,3.65.27.1.02,1.64.97,1.69,1.06.32.57-.44,1.89.65,2.57,1.3.81,2.73-.87,4.04,1.46.5.88-.48,1.74.18,2.88.64,1.1,1.99.39,2.55.72.08.05.99,1.62,1.01,1.71.27,1.14-.95,1.97-.38,3.17.36.75,1.99.91,2.22,1.23.17.25.52,1.96.47,2.3-.11.71-1.38,1.2-1.27,2.3.12,1.29,2.01,1.19,1.93,3.41-.06,1.57-.56,1.27-1.31,2.07Z"/>
    <g>
      <g>
        <path d="M183.14,37.89l1.39,4.3-1.04-.11-.31-.94-2.38-.26-.5.86-.99-.11,2.27-3.9,1.56.17ZM181.25,40.1l1.66.18-.53-1.65-.25-.03-.88,1.5Z"/>
        <path d="M186.78,38.29l1.81,3.02.15.02.31-2.79.98.11-.45,4.1-1.38-.15-1.8-3.02-.15-.02-.31,2.79-.98-.11.45-4.1,1.37.15ZM188.25,37.55c.11.01.16-.07.19-.32l.53.06c-.06.54-.29.8-.75.75-.51-.06-.58-.43-.8-.45-.13-.01-.18.09-.21.32l-.53-.06c.06-.53.29-.79.74-.74.5.05.59.42.82.45Z"/>
        <path d="M193.26,38.94c1.33.15,2.28.92,2.15,2.14l-.05.46c-.13,1.22-1.23,1.76-2.56,1.62l-.23-.03c-1.35-.15-2.32-.92-2.18-2.14l.05-.46c.13-1.21,1.24-1.77,2.59-1.62l.23.03ZM191.49,40.66l-.05.43c-.07.64.39,1.05,1.21,1.14l.2.02c.81.09,1.36-.2,1.43-.85l.05-.43c.07-.64-.4-1.05-1.21-1.14l-.2-.02c-.82-.09-1.36.2-1.43.85Z"/>
        <path d="M198.36,39.5c1.24.14,2.02.66,1.92,1.57l-.02.16-1-.11.02-.16c.04-.41-.36-.6-1-.67l-.14-.02c-.67-.07-1.09.02-1.11.27v.05c-.04.3.25.4,1.44.67,1.3.3,1.81.71,1.73,1.41v.07c-.09.73-.87,1.13-2.26.97l-.15-.02c-1.43-.16-2.12-.71-2.02-1.63l.02-.16,1,.11-.02.16c-.05.47.35.65,1.1.73l.14.02c.69.08,1.12,0,1.15-.28v-.06c.04-.28-.31-.42-1.45-.67-1.2-.27-1.79-.65-1.71-1.38v-.06c.09-.78.94-1.13,2.22-.99l.15.02Z"/>
      </g>
      <g>
        <path d="M172.67,32.85c-.27-.82-.11-1.49.54-1.7h.03s.21.63.21.63h-.03c-.27.1-.37.4-.2.9l.03.1c.16.49.44.69.82.56l.3-.1c.4-.13.5-.45.34-.94l-.03-.1c-.16-.5-.43-.69-.7-.61h-.02s-.21-.64-.21-.64h.02c.64-.22,1.18.23,1.45,1.06l.03.1c.26.8.1,1.51-.67,1.76l-.3.1c-.77.25-1.32-.23-1.58-1.03l-.03-.1Z"/>
        <path d="M171.85,29.13c-.11-.84.23-1.54,1-1.64l.29-.04c.77-.1,1.27.49,1.38,1.33l.02.15c.11.86-.22,1.56-.99,1.66l-.29.04c-.77.1-1.27-.5-1.38-1.36l-.02-.15ZM173.17,29.96l.27-.03c.41-.05.59-.4.52-.92l-.02-.12c-.07-.51-.33-.81-.73-.76l-.27.03c-.41.05-.59.4-.52.92l.02.12c.07.52.33.81.73.76Z"/>
        <path d="M171.73,25.4c.05-.86.44-1.43,1.12-1.39h.04s-.04.68-.04.68h-.04c-.28-.01-.48.22-.51.75v.1c-.03.51.15.8.56.82l.32.02c.42.02.63-.24.66-.75v-.1c.03-.52-.14-.8-.43-.82h-.02s.04-.68.04-.68h.02c.67.04,1.01.66.97,1.52v.11c-.05.84-.46,1.44-1.27,1.4l-.32-.02c-.81-.05-1.15-.69-1.1-1.53v-.11Z"/>
        <path d="M172.39,21.43l2.81-.53-.15.65-.62.12-.35,1.48.5.38-.15.61-2.27-1.73.23-.97ZM173.63,22.79l.24-1.03-1.08.2-.04.16.87.67Z"/>
        <path d="M174.66,18.99l.49.19-.54,1.37-.49-.19.54-1.37Z"/>
        <path d="M174.39,16.48c.43-.75,1.03-1.08,1.63-.74l.03.02-.34.59-.03-.02c-.25-.14-.53-.01-.79.44l-.05.09c-.25.44-.22.78.14.99l.27.16c.36.21.67.06.92-.38l.05-.09c.26-.45.22-.78-.02-.92h-.02s.34-.6.34-.6h.02c.59.35.61,1.05.18,1.81l-.05.09c-.42.73-1.05,1.09-1.76.68l-.27-.16c-.7-.4-.72-1.13-.3-1.86l.05-.09Z"/>
        <path d="M176.59,13.38c.55-.64,1.3-.86,1.88-.36l.22.19c.59.5.49,1.27-.06,1.92l-.1.11c-.56.66-1.31.89-1.9.38l-.22-.19c-.59-.5-.48-1.28.08-1.94l.1-.11ZM176.86,14.92l.21.18c.31.27.69.17,1.03-.23l.08-.1c.34-.4.38-.79.07-1.05l-.21-.18c-.31-.27-.69-.16-1.03.23l-.08.09c-.34.4-.38.79-.07,1.05Z"/>
        <path d="M178.65,11.35l1.33,1.59,1.32-1.1.35.42-1.83,1.53-1.68-2,.51-.43Z"/>
        <path d="M182.16,8.88l2.33,1.66-.57.34-.51-.36-1.31.77.07.62-.55.32-.32-2.84.86-.5ZM182.04,10.71l.91-.54-.89-.64-.14.08.12,1.09Z"/>
        <path d="M185.73,7.32l1.02,1.06.14-.04.33-1.44.98-.28.71,2.51-.64.18-.53-1.87-.11.03-.32,1.43-.72.2-1.01-1.05-.11.03.53,1.87-.61.17-.71-2.51,1.04-.29Z"/>
        <path d="M189.68,6.46l.11,1.46c.03.4.25.6.75.56h.12c.5-.05.69-.27.66-.67l-.11-1.46.67-.05.11,1.46c.06.85-.47,1.22-1.28,1.29h-.12c-.81.07-1.4-.22-1.46-1.07l-.11-1.46.67-.05Z"/>
        <path d="M193.98,6.41c.79.08,1.28.4,1.23.98v.1s-.65-.06-.65-.06v-.1c.03-.26-.22-.38-.63-.42h-.09c-.42-.05-.69.02-.7.17v.03c-.02.19.16.25.92.41.83.18,1.15.43,1.11.88v.04c-.05.46-.54.72-1.42.64h-.09c-.91-.1-1.35-.44-1.29-1.02v-.1s.65.06.65.06v.1c-.04.3.22.41.7.46h.09c.44.05.71,0,.72-.18v-.04c.02-.18-.2-.26-.92-.41-.76-.16-1.14-.4-1.1-.86v-.04c.05-.5.58-.72,1.39-.65h.1Z"/>
        <path d="M197.8,7.17l-.13.53-.62-.15-.37,1.49.62.15-.13.53-1.88-.46.13-.53.62.15.37-1.49-.62-.15.13-.53,1.88.46Z"/>
        <path d="M199.83,7.88c.8.33,1.2.89.94,1.52v.03s-.64-.26-.64-.26v-.03c.12-.26-.04-.53-.53-.73l-.09-.04c-.47-.2-.81-.12-.96.26l-.12.29c-.16.39.02.67.49.87l.09.04c.48.2.81.12.91-.13v-.02s.64.26.64.26v.02c-.27.62-.96.74-1.77.4l-.1-.04c-.78-.32-1.21-.91-.9-1.66l.12-.29c.31-.75,1.03-.85,1.81-.53l.1.04Z"/>
        <path d="M204.72,10.8l-.31.43-1.53-1.09-.29.41,1.37.97-.29.41-1.37-.97-.32.45,1.55,1.1-.31.43-2.09-1.48,1.51-2.13,2.08,1.47Z"/>
        <path d="M205.77,11.74l-.15,1.17.13.14,1.15-.17.52.52-1.6.23-.22,1.66-.56-.56.16-1.23-.14-.14-1.2.18-.52-.52,1.65-.24.22-1.59.56.57Z"/>
        <path d="M208.84,15.36c.41.59.32,1.01-.09,1.29l-.1.07c-.42.29-.84.23-1.25-.36l-.61-.88-.7.49-.38-.55,2.14-1.49,1,1.43ZM207.23,15.17l.58.83c.15.21.29.28.47.16l.07-.05c.17-.12.16-.28,0-.49l-.58-.83-.55.38Z"/>
        <path d="M210.85,19.12l-.48.23-.8-1.7-.45.21.71,1.51-.45.21-.71-1.51-.5.23.81,1.72-.48.23-1.09-2.32,2.36-1.12,1.09,2.3Z"/>
        <path d="M211.62,21.61c.15.55-.05.96-.5,1.09l-.12.03c-.32.09-.62-.01-.81-.27l-.81.84-.2-.71.75-.79-.25-.88-.9.25-.18-.64,2.52-.7.5,1.78ZM210.18,20.78l.28,1c.07.24.19.36.39.3l.06-.02c.19-.05.24-.21.18-.46l-.28-1-.63.18Z"/>
        <path d="M212.2,25.05l-.54.07-.08-.63-1.52.19.08.63-.54.07-.24-1.93.54-.07.08.63,1.52-.19-.08-.63.54-.07.24,1.93Z"/>
        <path d="M212.19,28.29l-.53-.02.06-1.88h-.5s-.05,1.66-.05,1.66h-.5s.05-1.69.05-1.69l-.55-.02-.06,1.9-.53-.02.08-2.56,2.61.08-.08,2.54Z"/>
        <path d="M211.98,29.87l-2,.99-.02.09,1.74.34-.12.61-2.57-.49.17-.86,2-.98.02-.09-1.74-.34.12-.61,2.57.49-.17.86Z"/>
        <path d="M210.84,34.11c-.32.81-.86,1.22-1.5.97h-.03s.25-.64.25-.64h.03c.26.11.53-.05.72-.54l.04-.09c.19-.48.1-.81-.28-.96l-.29-.12c-.39-.15-.67.03-.86.51l-.04.09c-.19.49-.11.81.15.91h.02s-.25.64-.25.64h-.02c-.63-.26-.76-.95-.44-1.76l.04-.1c.31-.78.89-1.23,1.64-.93l.29.12c.75.3.87,1.02.56,1.8l-.04.1Z"/>
        <path d="M208.58,38.29l-.45-.28.98-1.6-.43-.26-.88,1.43-.43-.26.88-1.43-.47-.29-.99,1.62-.45-.28,1.34-2.18,2.23,1.37-1.33,2.17Z"/>
      </g>
      <path class="cls-2" d="M202.1,18.25l-10.28-1.27c-1.18-.15-2.26.69-2.41,1.87l-.5,3.84c-.22,1.69.22,3.41,1.29,4.73.66.8,2.03,1.45,3.2,1.69,2,.41,1.88,2.19.05,2.18-1.77-.01-4.15-.77-5.33.45-.74.76-1.42,3.98,2.38,4.43,4.37.51,7.47.55,8.12.38,1.67-.45,3.34-1.53,3.97-4.16.64-2.63-.54-5.76-2.29-6.7-1.16-.63-1.99-.69-2.67-.84-.57-.12-1.15-.53-1.17-1.12-.02-.52.26-1.01,1.43-.9,2.34.21,4.41.59,5.32-.17.62-.51.91-1.8.76-2.53-.21-1-.86-1.76-1.87-1.88Z"/>
      <path class="cls-2" d="M184.2,15.37c-.33-.02-.37.48-.39.72-.08.99-.39,2.99-1.18,4.09-.98,1.36-1.92,5.18-1.73,8.1.19,2.93-.61,4.42-.82,5.12-.2.63-.42,1.69.79,1.9,1.14.2,4.16.77,4.4-.12s0-2.82.08-3.98c.07-.99,1.03-3.58,1.09-5.8.06-2.52-.33-4.31-.53-5.43-.35-1.95.32-4.21-.03-4.4s-1.31-.17-1.66-.19Z"/>
    </g>
  </g>
</svg>